<?xml version="1.0" standalone="no"?>
<!DOCTYPE svg PUBLIC "-//W3C//DTD SVG 20010904//EN"
 "http://www.w3.org/TR/2001/REC-SVG-20010904/DTD/svg10.dtd">
<svg version="1.0" xmlns="http://www.w3.org/2000/svg"
 width="784.000000pt" height="1168.000000pt" viewBox="0 0 784.000000 1168.000000"
 preserveAspectRatio="xMidYMid meet">

<g transform="translate(0.000000,1168.000000) scale(0.100000,-0.100000)"
fill="#000000" stroke="none">
<path d="M2253 7938 c-195 -217 -422 -469 -490 -541 -35 -37 -77 -86 -93 -109
l-30 -41 0 -1845 0 -1845 43 49 c23 27 128 143 232 259 105 116 266 296 360
400 167 187 408 452 591 650 103 111 154 173 154 186 0 5 8 9 18 9 16 0 17
-42 14 -775 -2 -426 1 -775 5 -774 4 0 65 66 135 147 70 81 233 264 363 407
l235 260 0 1735 c0 954 3 1786 7 1849 4 79 3 113 -5 110 -5 -2 -83 -87 -173
-189 -130 -148 -332 -373 -359 -400 -3 -3 -41 -45 -85 -95 -44 -49 -85 -94
-92 -100 -30 -25 -33 -74 -33 -507 l0 -440 -97 -106 c-53 -59 -99 -109 -103
-112 -3 -3 -61 -68 -129 -145 -68 -77 -143 -161 -167 -188 -24 -26 -69 -79
-100 -117 -31 -39 -62 -69 -68 -67 -8 3 -10 340 -7 1235 2 678 1 1232 -2 1232
-3 0 -59 -59 -124 -132z"/>
<path d="M6118 7983 c-40 -47 -98 -116 -129 -152 -30 -36 -114 -136 -185 -221
-169 -202 -334 -399 -361 -430 -12 -14 -86 -102 -165 -196 -79 -94 -201 -240
-273 -323 -71 -84 -156 -185 -187 -224 -81 -101 -79 -98 -89 -95 -5 2 -31 31
-57 64 -26 34 -84 106 -129 160 -46 55 -119 142 -162 194 -44 52 -135 163
-203 247 -68 84 -126 152 -130 153 -5 0 -8 -281 -8 -624 l0 -623 28 -35 c15
-19 50 -61 79 -94 28 -32 71 -84 95 -115 23 -31 75 -94 113 -140 39 -46 82
-100 97 -119 14 -19 34 -44 45 -55 10 -11 64 -75 121 -142 56 -67 106 -124
111 -128 5 -3 61 57 124 132 63 76 181 217 262 313 212 253 289 345 300 364 6
10 18 18 28 19 17 2 18 -43 17 -958 0 -528 -3 -1058 -6 -1177 -4 -120 -5 -218
-1 -218 3 0 73 76 156 169 83 93 157 176 164 183 7 7 48 54 92 103 43 50 104
117 134 150 31 33 86 93 124 133 l67 73 0 1292 c0 711 1 1543 3 1850 1 306 1
557 0 557 -1 0 -35 -39 -75 -87z"/>
</g>
</svg>
